<svg width="48" height="48" viewBox="0 0 48 48" fill="none" xmlns="http://www.w3.org/2000/svg">
    <path d="M30.2379 0.000382805C27.1473 -0.0309462 24.373 1.86349 23.6957 4.66111C22.9217 7.85839 25.19 10.9838 28.784 11.6723C32.3777 12.3608 35.8907 10.3429 36.6648 7.14566C37.4387 3.94859 35.1705 0.823199 31.5768 0.134711C31.1275 0.0486637 30.6795 0.00488904 30.2381 0.000382805H30.2379ZM25.7101 12.6479L21.7234 29.1167H27.3984L31.1334 13.6872C30.2188 13.7769 29.274 13.7416 28.327 13.5602C27.3798 13.3788 26.5023 13.0648 25.7101 12.648V12.6479ZM17.0636 31.048L15.8576 34.2667H32.1424L30.9364 31.048H17.0636ZM1.92965 36.198V39.4167H5.54774V36.198H1.92965ZM13.2043 36.198L11.9983 39.4167H36.0017L34.7957 36.198H13.2043ZM42.4523 36.198V39.4167H46.0704V36.198H42.4523ZM0 41.3479V48H48V41.3479H0Z"
          fill="currentColor"/>
</svg>
