<?xml version="1.0" encoding="UTF-8" standalone="no"?>
<svg
   width="48"
   height="48"
   fill="currentColor"
   class="bi bi-binoculars"
   viewBox="0 0 20 20"
   version="1.1"
   id="svg138"
   sodipodi:docname="05_resistor.svg"
   inkscape:version="1.1 (c68e22c387, 2021-05-23)"
   xmlns:inkscape="http://www.inkscape.org/namespaces/inkscape"
   xmlns:sodipodi="http://sodipodi.sourceforge.net/DTD/sodipodi-0.dtd"
   xmlns="http://www.w3.org/2000/svg"
   xmlns:svg="http://www.w3.org/2000/svg">
  <sodipodi:namedview
     id="namedview6"
     pagecolor="#ffffff"
     bordercolor="#666666"
     borderopacity="1.0"
     inkscape:pageshadow="2"
     inkscape:pageopacity="0.0"
     inkscape:pagecheckerboard="true"
     showgrid="false"
     inkscape:zoom="8.4583335"
     inkscape:cx="8.689655"
     inkscape:cy="13.891625"
     inkscape:window-width="1920"
     inkscape:window-height="1001"
     inkscape:window-x="-9"
     inkscape:window-y="-9"
     inkscape:window-maximized="1"
     inkscape:current-layer="svg138" />
  <defs
     id="defs142" />
  <g
     aria-label="Ω"
     id="text10601"
     style="font-size:19.2px;line-height:1.25;fill:#000000;stroke-width:0.4"
     transform="matrix(0.75,0,0,0.75,1.9244249,2.9851295)">
    <path
       d="m 18.370559,16.478161 h -6.712501 v -4.575 q 0.571875,-0.346875 0.9375,-0.590625 0.375,-0.24375 0.73125,-0.73125 0.3375,-0.440625 0.50625,-0.9468754 0.178125,-0.515625 0.178125,-1.3875001 0,-1.575 -0.871875,-2.4750001 -0.871875,-0.909375 -2.371875,-0.909375 -1.4999997,0 -2.3718747,0.909375 -0.8718751,0.9000001 -0.8718751,2.4750001 0,0.8156251 0.178125,1.3781251 0.1875,0.5625004 0.50625,0.9750004 0.3187501,0.403125 0.7687501,0.721875 0.459375,0.31875 0.9,0.58125 v 4.575 H 3.164308 v -2.7 h 4.4437502 v -0.590625 q -1.9125001,-0.759375 -2.8687501,-2.1 -0.95625,-1.3406254 -0.95625,-3.2156255 0,-2.4562501 1.9125,-4.0500001 1.9125001,-1.5937501 5.0718749,-1.5937501 3.159375,0 5.071876,1.5937501 1.9125,1.59375 1.9125,4.0500001 0,1.8750001 -0.95625,3.2156255 -0.95625,1.340625 -2.868751,2.1 v 0.590625 h 4.443751 z"
       style="font-weight:bold;-inkscape-font-specification:'sans-serif Bold';fill:#ffffff"
       id="path823" />
  </g>
  <ellipse
     style="fill:none;fill-opacity:1;stroke:#ffffff;stroke-width:1.57357;stroke-miterlimit:4;stroke-dasharray:none;stroke-opacity:1"
     id="path851"
     cx="9.9876842"
     cy="10.012315"
     rx="9.2254524"
     ry="9.2222929" />
</svg>
