<?xml version="1.0" encoding="UTF-8" standalone="no"?>
<svg
   width="48"
   height="48"
   fill="currentColor"
   class="bi bi-binoculars"
   viewBox="0 0 19.2 19.2"
   version="1.1"
   id="svg138"
   sodipodi:docname="08_trailsensor.svg"
   inkscape:version="1.1 (c68e22c387, 2021-05-23)"
   xmlns:inkscape="http://www.inkscape.org/namespaces/inkscape"
   xmlns:sodipodi="http://sodipodi.sourceforge.net/DTD/sodipodi-0.dtd"
   xmlns="http://www.w3.org/2000/svg"
   xmlns:svg="http://www.w3.org/2000/svg">
  <sodipodi:namedview
     id="namedview5"
     pagecolor="#ffffff"
     bordercolor="#666666"
     borderopacity="1.0"
     inkscape:pageshadow="2"
     inkscape:pageopacity="0.0"
     inkscape:pagecheckerboard="true"
     showgrid="false"
     inkscape:zoom="16.916667"
     inkscape:cx="23.970443"
     inkscape:cy="24.029557"
     inkscape:window-width="1920"
     inkscape:window-height="1001"
     inkscape:window-x="-9"
     inkscape:window-y="-9"
     inkscape:window-maximized="1"
     inkscape:current-layer="svg138" />
  <defs
     id="defs142" />
  <path
     d="m 14.6,15.6 a 1.5,1.5 0 0 1 -1.5,1.5 h -1 A 1.5,1.5 0 0 1 10.6,15.6 V 13.1 H 8.5999999 v 2.5 a 1.5,1.5 0 0 1 -1.5,1.5 h -1 a 1.5,1.5 0 0 1 -1.5,-1.5 v -2.382 a 0.5,0.5 0 0 0 -0.276,-0.447 l -0.895,-0.447 a 1.5,1.5 0 0 1 -0.829,-1.342 V 3.5999998 a 1.5,1.5 0 0 1 1.5,-1.5 h 3 a 1.5,1.5 0 0 1 1.5,1.5 v 3 a 0.5,0.5 0 0 1 -0.146,0.354 l -0.854,0.853 v 0.793 a 0.5,0.5 0 0 0 0.5,0.5 H 11.1 a 0.5,0.5 0 0 0 0.5,-0.5 v -0.793 l -0.854,-0.853 a 0.5,0.5 0 0 1 -0.146,-0.354 v -3 a 1.5,1.5 0 0 1 1.5,-1.5 h 3 a 1.5,1.5 0 0 1 1.5,1.5 V 10.982 a 1.5,1.5 0 0 1 -0.83,1.342 l -0.894,0.447 A 0.5,0.5 0 0 0 14.6,13.218 Z m -1.5,0.5 a 0.5,0.5 0 0 0 0.5,-0.5 v -0.5 h -2 v 0.5 a 0.5,0.5 0 0 0 0.5,0.5 z m -1.5,-2 h 2 v -0.882 a 1.5,1.5 0 0 1 0.83,-1.342 l 0.894,-0.447 A 0.5,0.5 0 0 0 15.6,10.982 V 5.0999998 h -4 v 1.293 l 0.854,0.853 a 0.5,0.5 0 0 1 0.146,0.354 V 8.5999999 A 1.5,1.5 0 0 1 11.1,10.1 H 8.0999999 a 1.5,1.5 0 0 1 -1.5,-1.5000002 v -1 a 0.5,0.5 0 0 1 0.146,-0.354 l 0.854,-0.853 v -1.293 h -4 V 10.982 a 0.5,0.5 0 0 0 0.276,0.447 l 0.895,0.447 a 1.5,1.5 0 0 1 0.829,1.342 V 14.1 h 2 v -1.5 a 0.5,0.5 0 0 1 0.5,-0.5 H 11.1 a 0.5,0.5 0 0 1 0.5,0.5 z m -4.0000001,1 h -2 v 0.5 a 0.5,0.5 0 0 0 0.5,0.5 h 1 a 0.5,0.5 0 0 0 0.5,-0.5 z m -4,-11.0000002 h 4 v -0.5 a 0.5,0.5 0 0 0 -0.5,-0.5 h -3 a 0.5,0.5 0 0 0 -0.5,0.5 z m 8.0000001,0 h 4 v -0.5 a 0.5,0.5 0 0 0 -0.5,-0.5 h -3 a 0.5,0.5 0 0 0 -0.5,0.5 z"
     fill="#ffffff"
     id="path136" />
</svg>
