<?xml version="1.0" encoding="UTF-8" standalone="no"?>
<svg
   width="48"
   height="48"
   fill="currentColor"
   class="bi bi-controller"
   viewBox="0 0 20 20"
   version="1.1"
   id="svg250"
   sodipodi:docname="11_joystick.svg"
   inkscape:version="1.1 (c68e22c387, 2021-05-23)"
   xmlns:inkscape="http://www.inkscape.org/namespaces/inkscape"
   xmlns:sodipodi="http://sodipodi.sourceforge.net/DTD/sodipodi-0.dtd"
   xmlns="http://www.w3.org/2000/svg"
   xmlns:svg="http://www.w3.org/2000/svg">
  <sodipodi:namedview
     id="namedview6"
     pagecolor="#ffffff"
     bordercolor="#666666"
     borderopacity="1.0"
     inkscape:pageshadow="2"
     inkscape:pageopacity="0.0"
     inkscape:pagecheckerboard="true"
     showgrid="false"
     inkscape:zoom="16.916667"
     inkscape:cx="23.970443"
     inkscape:cy="24.029557"
     inkscape:window-width="1920"
     inkscape:window-height="1001"
     inkscape:window-x="-9"
     inkscape:window-y="-9"
     inkscape:window-maximized="1"
     inkscape:current-layer="svg250" />
  <defs
     id="defs254" />
  <g
     id="g825"
     transform="translate(0.12775795,0.11056005)">
    <path
       d="m 13.372242,8.077958 a 0.5,0.5 0 1 1 -1,0 0.5,0.5 0 0 1 1,0 z m -1.5,1.5 a 0.5,0.5 0 1 0 0,-1 0.5,0.5 0 0 0 0,1 z m 2.5,-0.5 a 0.5,0.5 0 1 1 -1,0 0.5,0.5 0 0 1 1,0 z m -1.5,1.5 a 0.5,0.5 0 1 0 0,-1 0.5,0.5 0 0 0 0,1 z m -6.5,-3 h 1 v 1 h 1 v 1 h -1 v 1 h -1 v -1 h -1 v -1 h 1 z"
       fill="#ffffff"
       id="path246" />
    <path
       d="m 4.9236138,5.310958 a 0.5,0.5 0 0 1 0.354,-0.613 l 1.932,-0.518 a 0.5,0.5 0 0 1 0.62,0.39 c 0.655,-0.079 1.35,-0.117 2.043,-0.117 0.7200002,0 1.4430002,0.041 2.1200002,0.126 a 0.5,0.5 0 0 1 0.622,-0.399 l 1.932,0.518 a 0.5,0.5 0 0 1 0.306,0.729 c 0.14,0.09 0.266,0.19 0.373,0.297 0.408,0.408 0.78,1.05 1.095,1.772 0.32,0.733 0.599,1.591 0.805,2.466 0.206,0.875 0.34,1.78 0.364,2.606 0.024,0.816 -0.059,1.602 -0.328,2.21 a 1.42,1.42 0 0 1 -1.445,0.83 c -0.636,-0.067 -1.115,-0.394 -1.513,-0.773 -0.245,-0.232 -0.496,-0.526 -0.739,-0.808 -0.126,-0.148 -0.25,-0.292 -0.368,-0.423 -0.728,-0.804 -1.597,-1.527 -3.2240002,-1.527 -1.627,0 -2.496,0.723 -3.224,1.527 -0.119,0.131 -0.242,0.275 -0.368,0.423 -0.243,0.282 -0.494,0.575 -0.739,0.808 -0.398,0.38 -0.877,0.706 -1.513,0.773 a 1.42,1.42 0 0 1 -1.445,-0.83 c -0.27,-0.608 -0.352,-1.395 -0.329,-2.21 0.024,-0.826 0.16,-1.73 0.365,-2.606 0.206,-0.875 0.486,-1.733 0.805,-2.466 0.315,-0.722 0.687,-1.364 1.094,-1.772 a 2.34,2.34 0 0 1 0.433,-0.335 0.504,0.504 0 0 1 -0.028,-0.079 z m 2.036,0.412 c -0.877,0.185 -1.469,0.443 -1.733,0.708 -0.276,0.276 -0.587,0.783 -0.885,1.465 a 13.748,13.748 0 0 0 -0.748,2.295 12.351,12.351 0 0 0 -0.339,2.406 c -0.022,0.755 0.062,1.368 0.243,1.776 a 0.42,0.42 0 0 0 0.426,0.24 c 0.327,-0.034 0.61,-0.199 0.929,-0.502 0.212,-0.202 0.4,-0.423 0.615,-0.674 0.133,-0.156 0.276,-0.323 0.44,-0.504 0.826,-0.913 1.943,-1.855 3.965,-1.855 2.0220002,0 3.1390002,0.942 3.9650002,1.855 0.164,0.181 0.307,0.348 0.44,0.504 0.214,0.251 0.403,0.472 0.615,0.674 0.318,0.303 0.601,0.468 0.929,0.503 a 0.42,0.42 0 0 0 0.426,-0.241 c 0.18,-0.408 0.265,-1.02 0.243,-1.776 a 12.354,12.354 0 0 0 -0.339,-2.406 13.753,13.753 0 0 0 -0.748,-2.295 c -0.298,-0.682 -0.61,-1.19 -0.885,-1.465 -0.264,-0.265 -0.856,-0.523 -1.733,-0.708 -0.85,-0.179 -1.877,-0.27 -2.9130002,-0.27 -1.036,0 -2.063,0.091 -2.913,0.27 z"
       fill="#ffffff"
       id="path248" />
  </g>
</svg>
