<?xml version="1.0" encoding="UTF-8" standalone="no"?>
<svg
   width="48"
   height="48"
   fill="currentColor"
   class="bi bi-toggle2-off"
   viewBox="0 0 19 19"
   version="1.1"
   id="svg355"
   sodipodi:docname="12_button.svg"
   inkscape:version="1.1 (c68e22c387, 2021-05-23)"
   xmlns:inkscape="http://www.inkscape.org/namespaces/inkscape"
   xmlns:sodipodi="http://sodipodi.sourceforge.net/DTD/sodipodi-0.dtd"
   xmlns="http://www.w3.org/2000/svg"
   xmlns:svg="http://www.w3.org/2000/svg">
  <sodipodi:namedview
     id="namedview9"
     pagecolor="#ffffff"
     bordercolor="#666666"
     borderopacity="1.0"
     inkscape:pageshadow="2"
     inkscape:pageopacity="0.0"
     inkscape:pagecheckerboard="true"
     showgrid="false"
     inkscape:zoom="16.916667"
     inkscape:cx="23.970443"
     inkscape:cy="24.029557"
     inkscape:window-width="1920"
     inkscape:window-height="1001"
     inkscape:window-x="-9"
     inkscape:window-y="-9"
     inkscape:window-maximized="1"
     inkscape:current-layer="svg355" />
  <defs
     id="defs359">
    <clipPath
       id="clip0">
      <rect
         x="537"
         y="534"
         width="54"
         height="53"
         id="rect979" />
    </clipPath>
  </defs>
  <g
     clip-path="url(#clip0)"
     transform="matrix(0.24,0,0,0.24,-125.86,-125.02)"
     id="g988">
    <path
       d="m 540,544.833 c 0,-4.326 3.507,-7.833 7.833,-7.833 h 32.334 c 4.326,0 7.833,3.507 7.833,7.833 v 31.334 c 0,4.326 -3.507,7.833 -7.833,7.833 H 547.833 C 543.507,584 540,580.493 540,576.167 Z"
       stroke="#ffffff"
       stroke-width="6.25"
       stroke-linecap="round"
       stroke-miterlimit="8"
       fill="none"
       fill-rule="evenodd"
       id="path984" />
    <path
       d="m 552,560 c 0,-6.627 5.149,-12 11.5,-12 6.351,0 11.5,5.373 11.5,12 0,6.627 -5.149,12 -11.5,12 -6.351,0 -11.5,-5.373 -11.5,-12 z"
       stroke="#ffffff"
       fill="#ffffff"
       stroke-width="1.66667"
       stroke-miterlimit="8"
       fill-rule="evenodd"
       id="path986" />
  </g>
</svg>
