<?xml version="1.0" encoding="UTF-8" standalone="no"?>
<svg
   width="48"
   height="48"
   fill="currentColor"
   class="bi bi-binoculars"
   viewBox="0 0 19.2 19.2"
   version="1.1"
   id="svg138"
   sodipodi:docname="15_rgbled.svg"
   inkscape:version="1.1 (c68e22c387, 2021-05-23)"
   xmlns:inkscape="http://www.inkscape.org/namespaces/inkscape"
   xmlns:sodipodi="http://sodipodi.sourceforge.net/DTD/sodipodi-0.dtd"
   xmlns="http://www.w3.org/2000/svg"
   xmlns:svg="http://www.w3.org/2000/svg">
  <sodipodi:namedview
     id="namedview12"
     pagecolor="#ffffff"
     bordercolor="#666666"
     borderopacity="1.0"
     inkscape:pageshadow="2"
     inkscape:pageopacity="0.0"
     inkscape:pagecheckerboard="true"
     showgrid="false"
     inkscape:zoom="8.4583333"
     inkscape:cx="7.3891626"
     inkscape:cy="27.014778"
     inkscape:window-width="1920"
     inkscape:window-height="1001"
     inkscape:window-x="-9"
     inkscape:window-y="-9"
     inkscape:window-maximized="1"
     inkscape:current-layer="svg138" />
  <defs
     id="defs142">
    <clipPath
       id="clip0">
      <rect
         x="1103"
         y="296"
         width="78"
         height="64"
         id="rect5832" />
    </clipPath>
  </defs>
  <g
     clip-path="url(#clip0)"
     transform="matrix(0.24,0,0,0.24,-262.9588,-68.70276)"
     id="g5847">
    <path
       d="M 0,0 1.31234e-4,54.3982"
       stroke="#ffffff"
       stroke-width="6.25"
       stroke-linecap="round"
       stroke-miterlimit="8"
       fill="none"
       fill-rule="evenodd"
       transform="matrix(1,0,0,-1,1120,353.398)"
       id="path5837" />
    <path
       d="m 1135,314 -15,27 -15,-27 z"
       stroke="#ffffff"
       stroke-width="1.66667"
       stroke-miterlimit="8"
       fill="#ffffff"
       fill-rule="evenodd"
       id="path5839" />
    <path
       d="M 0,0 25.2705,1.31234e-4"
       stroke="#ffffff"
       stroke-width="6.25"
       stroke-linecap="round"
       stroke-miterlimit="8"
       fill="none"
       fill-rule="evenodd"
       transform="matrix(-1,0,0,1,1132.27,337)"
       id="path5841" />
    <path
       d="m 1156.83,323.517 -17.37,-9.795 c -1.5,-0.848 -2.03,-2.754 -1.18,-4.257 0.85,-1.503 2.75,-2.035 4.26,-1.187 l 17.36,9.795 c 1.51,0.848 2.04,2.754 1.19,4.257 -0.85,1.503 -2.75,2.035 -4.26,1.187 z m 3.42,-12.423 6.28,14.306 -15.49,2.026 z"
       stroke="#ffffff"
       stroke-width="1.66667"
       stroke-miterlimit="8"
       fill="#ffffff"
       id="path5843" />
    <path
       d="m 1156.83,344.517 -17.37,-9.795 c -1.5,-0.848 -2.03,-2.754 -1.18,-4.257 0.85,-1.503 2.75,-2.035 4.26,-1.187 l 17.36,9.795 c 1.51,0.848 2.04,2.754 1.19,4.257 -0.85,1.503 -2.75,2.035 -4.26,1.187 z m 3.42,-12.423 6.28,14.306 -15.49,2.026 z"
       stroke="#ffffff"
       stroke-width="1.66667"
       stroke-miterlimit="8"
       fill="#ffffff"
       id="path5845" />
  </g>
</svg>
