<?xml version="1.0" encoding="UTF-8" standalone="no"?>
<svg
   width="48"
   height="48"
   fill="currentColor"
   class="bi bi-binoculars"
   viewBox="0 0 20 20"
   version="1.1"
   id="svg138"
   sodipodi:docname="24_buzzer.svg"
   inkscape:version="1.1 (c68e22c387, 2021-05-23)"
   xmlns:inkscape="http://www.inkscape.org/namespaces/inkscape"
   xmlns:sodipodi="http://sodipodi.sourceforge.net/DTD/sodipodi-0.dtd"
   xmlns="http://www.w3.org/2000/svg"
   xmlns:svg="http://www.w3.org/2000/svg">
  <sodipodi:namedview
     id="namedview6"
     pagecolor="#ffffff"
     bordercolor="#666666"
     borderopacity="1.0"
     inkscape:pageshadow="2"
     inkscape:pageopacity="0.0"
     inkscape:pagecheckerboard="true"
     showgrid="false"
     inkscape:zoom="11.96189"
     inkscape:cx="33.648529"
     inkscape:cy="31.140564"
     inkscape:window-width="1920"
     inkscape:window-height="1001"
     inkscape:window-x="-9"
     inkscape:window-y="-9"
     inkscape:window-maximized="1"
     inkscape:current-layer="text10601" />
  <defs
     id="defs142" />
  <g
     aria-label="V"
     id="text10601"
     style="font-size:19.2px;line-height:1.25;fill:#000000;stroke-width:0.4"
     transform="translate(-0.75257951,0.3707477)">
    <path
       d="m 13.284032,7.6062689 c -0.281029,-0.2278307 -0.694646,-0.1877266 -0.922641,0.093002 -0.229799,0.2799362 -0.188792,0.6930056 0.09227,0.9223677 0.30823,0.2530907 0.485924,0.6194129 0.485924,0.9830019 0,0.3873719 -0.177694,0.7542415 -0.486881,1.0068405 -0.28103,0.229527 -0.322036,0.642432 -0.09226,0.922368 0.129006,0.158721 0.317664,0.240624 0.507384,0.240624 0.146092,0 0.293878,-0.04864 0.415257,-0.147595 0.616051,-0.480402 0.968705,-1.215781 0.968705,-2.0222375 0,-0.8064565 -0.352654,-1.4953615 -0.967748,-1.9983718 z m 1.653919,-2.0175075 c -0.279389,-0.2278307 -0.692732,-0.1885736 -0.923461,0.091308 -0.229799,0.2799363 -0.188793,0.6930056 0.09142,0.922367 0.927725,0.7331918 1.458073,1.859497 1.458073,3.0022048 0,1.1427073 -0.531441,2.2444093 -1.457363,3.0262613 -0.280209,0.229526 -0.321215,0.642431 -0.09142,0.922367 0.129853,0.157875 0.317662,0.239777 0.507384,0.239777 0.14694,0 0.293878,-0.04864 0.416077,-0.148469 1.23221,-0.983604 1.937518,-2.457095 1.937518,-4.0399363 0,-1.5828412 -0.705308,-3.0098587 -1.938228,-4.0158793 z M 16.61374,3.543917 c -0.27939,-0.2278312 -0.692733,-0.1877271 -0.923461,0.091307 -0.229799,0.2799362 -0.188793,0.6930056 0.09142,0.9223678 1.529151,1.2526037 2.406685,3.1006189 2.406685,5.0470492 0,1.94643 -0.877261,3.819049 -2.407341,5.071106 -0.280209,0.229526 -0.321215,0.642431 -0.09142,0.922367 0.128595,0.182068 0.317224,0.264081 0.508587,0.264081 0.146938,0 0.293878,-0.04864 0.416076,-0.14847 1.8338,-1.502715 2.886294,-3.719787 2.886294,-6.109084 0,-2.3892978 -1.052494,-4.558802 -2.88684,-6.060724 z M 10.238635,3.587108 C 9.924253,3.4454723 9.554923,3.5030176 9.2974042,3.7317236 L 5.6076618,7.0075758 H 3.3167791 c -0.7247169,0 -1.3122,0.5872095 -1.3122,1.3111068 v 2.6222134 c 0,0.723897 0.5874831,1.311106 1.3122,1.311106 h 2.2919765 l 3.6878285,3.275034 c 0.162932,0.143794 0.3706969,0.220339 0.5811959,0.220339 0.121324,0 0.244916,-0.02547 0.359761,-0.0775 0.315475,-0.141199 0.515039,-0.452846 0.515039,-0.794565 V 4.383725 c 0,-0.3436325 -0.199564,-0.6558272 -0.513945,-0.7966151 z"
       id="path2"
       style="stroke-width:0.010935;fill:#ffffff;fill-opacity:1" />
  </g>
</svg>
