<?xml version="1.0" encoding="UTF-8" standalone="no"?>
<svg
        width="48"
        height="48"
        fill="currentColor"
        class="bi bi-binoculars"
        viewBox="0 0 20 20"
        version="1.1"
        id="svg138"
        sodipodi:docname="25_counter.svg"
        inkscape:version="1.1 (c68e22c387, 2021-05-23)"
        xmlns:inkscape="http://www.inkscape.org/namespaces/inkscape"
        xmlns:sodipodi="http://sodipodi.sourceforge.net/DTD/sodipodi-0.dtd"
        xmlns="http://www.w3.org/2000/svg"
        xmlns:svg="http://www.w3.org/2000/svg">
    <sodipodi:namedview
            id="namedview6"
            pagecolor="#ffffff"
            bordercolor="#666666"
            borderopacity="1.0"
            inkscape:pageshadow="2"
            inkscape:pageopacity="0.0"
            inkscape:pagecheckerboard="true"
            showgrid="false"
            inkscape:zoom="16.916667"
            inkscape:cx="21.871921"
            inkscape:cy="24.325123"
            inkscape:window-width="1920"
            inkscape:window-height="1001"
            inkscape:window-x="-9"
            inkscape:window-y="-9"
            inkscape:window-maximized="1"
            inkscape:current-layer="text10601" />
    <defs
            id="defs142" />
    <g
            aria-label="V"
            id="text10601"
            style="font-size:19.2px;line-height:1.25;fill:#000000;stroke-width:0.4"
            transform="translate(-0.75257951,0.3707477)">
        <path
                d="M 3.9370334,2.6166617 H 18.159259 a 1.7777778,1.7777778 0 0 1 1.777775,1.7777792 V 15.061107 a 1.7777778,1.7777778 0 0 1 -1.777775,1.777779 H 3.9370334 A 1.7777778,1.7777778 0 0 1 2.1592584,15.061107 V 4.3944409 a 1.7777778,1.7777778 0 0 1 1.777775,-1.7777792 m 0,1.7777792 V 15.061107 H 10.159258 V 4.3944409 H 3.9370334 M 18.159259,15.061107 V 4.3944409 h -1.102225 c 0.213333,0.48 0.168891,0.9511125 0.168891,1.0044458 -0.06222,0.5955542 -0.48,1.217775 -0.631113,1.44 l -2.071112,2.2666667 2.951113,-0.017792 0.0089,1.0844456 -4.622221,-0.02667 -0.03554,-0.8888921 c 0,0 2.711108,-2.8711084 2.844442,-3.1288876 0.124418,-0.2488831 0.631085,-1.7333289 -0.622248,-1.7333289 -1.093334,0.044446 -0.968888,1.1555542 -0.968888,1.1555542 l -1.368891,0.00888 c 0,0 0.0089,-0.5866667 0.337779,-1.1644459 H 11.937033 V 15.061078 h 2.293334 l -0.0089,-0.764446 0.86222,-0.0089 c 0,0 0.808892,-0.142221 0.81778,-0.933333 0.03554,-0.888862 -0.720005,-0.888862 -0.853339,-0.888862 -0.115554,0 -0.951112,0.04444 -0.951112,0.773333 h -1.351109 c 0,0 0.03554,-1.831113 2.302221,-1.831113 2.311113,0 2.186667,1.795554 2.186667,1.795554 0,0 0.03554,1.111113 -0.986667,1.528892 l 0.462221,0.328888 h 1.448892 M 8.310379,13.283311 H 6.9770456 V 8.1277743 l -1.6,0.4977791 V 7.5322201 L 8.1681582,6.5366617 H 8.310379 Z"
                fill=""
                id="path22160"
                style="overflow:hidden;fill:#ffffff;stroke-width:0.0208333" />
    </g>
</svg>