<?xml version="1.0" encoding="UTF-8" standalone="no"?>
<svg
   width="48"
   height="48"
   fill="currentColor"
   class="bi bi-binoculars"
   viewBox="0 0 20 20"
   version="1.1"
   id="svg138"
   sodipodi:docname="20_xmmotor.svg"
   inkscape:version="1.1 (c68e22c387, 2021-05-23)"
   xmlns:inkscape="http://www.inkscape.org/namespaces/inkscape"
   xmlns:sodipodi="http://sodipodi.sourceforge.net/DTD/sodipodi-0.dtd"
   xmlns="http://www.w3.org/2000/svg"
   xmlns:svg="http://www.w3.org/2000/svg">
  <sodipodi:namedview
     id="namedview6"
     pagecolor="#ffffff"
     bordercolor="#666666"
     borderopacity="1.0"
     inkscape:pageshadow="2"
     inkscape:pageopacity="0.0"
     inkscape:pagecheckerboard="true"
     showgrid="false"
     inkscape:zoom="8.4583335"
     inkscape:cx="16.492611"
     inkscape:cy="28.078817"
     inkscape:window-width="1920"
     inkscape:window-height="1001"
     inkscape:window-x="-9"
     inkscape:window-y="-9"
     inkscape:window-maximized="1"
     inkscape:current-layer="text10601" />
  <defs
     id="defs142" />
  <g
     aria-label="M"
     id="text10601"
     style="font-size:19.2px;line-height:1.25;fill:#ffffff;fill-opacity:1;stroke-width:0.4"
     transform="translate(0.180233,0.3707477)">
    <g
       aria-label="M"
       id="text1788"
       style="font-size:13.3333px;stroke-width:0.166667">
      <path
         d="M 14.714164,13.675172 H 13.073543 L 12.083963,8.5319553 10.163395,13.798869 H 9.5579273 L 7.6373592,8.5319553 6.608716,13.675172 H 4.9746055 L 6.8951736,4.1309248 H 7.7936088 L 9.8574057,10.55669 11.87563,4.1309248 h 0.891925 z"
         style="font-weight:bold;font-family:'Trebuchet MS';-inkscape-font-specification:'Trebuchet MS Bold'"
         id="path14122" />
    </g>
  </g>
  <g
     transform="matrix(0.00175369,6.4998799e-6,0,-0.00175369,-0.85341139,21.767089)"
     fill="#000000"
     stroke="none"
     id="g4"
     style="fill:#ffffff;fill-opacity:1">
    <path
       d="m 5900,12430 c -282,-23 -420,-93 -465,-237 -16,-49 -17,-74 -9,-202 13,-217 9,-335 -14,-407 -57,-179 -213,-306 -490,-397 -356,-118 -601,-102 -765,51 -59,56 -102,118 -187,270 -83,150 -126,203 -191,236 -105,52 -232,31 -434,-72 -241,-123 -446,-287 -505,-405 -59,-117 -39,-201 96,-404 47,-70 99,-154 115,-185 78,-153 77,-297 -1,-465 -87,-188 -316,-429 -508,-535 -150,-83 -306,-90 -463,-21 -25,11 -104,56 -174,98 -71,43 -152,87 -180,98 -66,25 -150,25 -209,-2 -110,-48 -251,-230 -377,-485 -99,-202 -129,-341 -97,-450 20,-69 113,-151 248,-221 364,-189 460,-324 447,-630 -13,-321 -139,-629 -308,-757 -104,-78 -205,-99 -467,-97 -217,1 -261,-8 -330,-67 -50,-42 -84,-113 -108,-219 -27,-122 -25,-484 3,-616 43,-200 122,-296 269,-327 27,-6 120,-16 205,-22 359,-25 446,-52 582,-179 137,-129 247,-438 247,-695 0,-169 -38,-272 -139,-373 -50,-50 -120,-96 -314,-204 -105,-58 -150,-98 -181,-161 -52,-104 -32,-218 73,-433 128,-259 278,-452 401,-519 44,-24 70,-31 136,-34 108,-6 155,9 375,117 270,134 351,145 558,79 129,-41 172,-64 263,-142 207,-177 328,-385 328,-561 0,-112 -26,-181 -144,-379 -94,-158 -116,-213 -116,-289 0,-149 134,-280 496,-487 201,-114 289,-144 407,-138 147,8 203,56 340,288 173,291 283,363 594,389 67,5 132,15 143,21 40,21 219,-25 356,-91 154,-75 254,-179 296,-309 18,-55 22,-100 27,-305 8,-274 14,-299 91,-369 76,-68 169,-97 393,-121 73,-7 145,-18 160,-24 42,-16 223,-13 292,4 142,37 226,99 277,202 l 32,66 7,226 c 6,194 10,236 29,295 49,153 141,249 372,385 48,28 96,64 107,79 48,68 337,113 502,78 170,-36 271,-129 408,-376 72,-130 123,-194 175,-225 87,-51 187,-50 358,4 51,16 113,32 137,35 51,8 165,63 233,112 71,53 180,174 216,242 17,32 39,87 48,121 26,105 4,169 -130,377 -42,64 -85,141 -96,171 -30,80 -36,184 -16,274 15,67 36,114 144,324 17,33 36,74 42,91 17,47 147,174 243,238 115,77 199,107 313,113 137,8 190,-11 443,-156 134,-76 197,-96 277,-88 75,8 143,48 222,131 88,93 151,190 234,362 137,285 144,450 24,569 -39,38 -89,69 -216,132 -232,116 -313,189 -358,325 -87,267 -28,651 139,894 33,48 139,123 260,185 l 84,42 215,7 c 185,7 223,11 272,29 167,64 228,258 207,662 -16,308 -73,454 -203,522 -52,26 -151,32 -347,19 -87,-5 -174,-5 -215,0 -235,31 -418,248 -508,605 -51,201 -56,353 -15,477 43,127 135,220 354,354 171,106 237,167 259,242 31,105 12,200 -73,375 -122,248 -302,480 -416,535 -65,31 -148,37 -214,15 -28,-9 -113,-58 -189,-110 -76,-51 -160,-104 -187,-118 -253,-127 -519,-40 -813,267 -203,213 -279,398 -239,582 19,90 53,165 142,319 111,191 126,275 70,384 -53,105 -219,234 -450,349 -171,85 -254,113 -355,119 -74,5 -93,2 -138,-17 -78,-34 -122,-91 -218,-285 -46,-93 -103,-195 -127,-225 -146,-184 -395,-231 -753,-140 -344,87 -527,235 -574,464 -7,32 -13,149 -15,260 -3,224 -13,275 -65,338 -38,46 -133,94 -224,113 -89,18 -321,26 -456,15 z m 676,-1850 c 346,-23 606,-76 913,-187 1010,-364 1811,-1120 2236,-2109 61,-140 155,-424 194,-586 76,-308 106,-569 106,-913 0,-275 -10,-405 -51,-645 C 9766,4922 8981,3874 7869,3330 7063,2936 6140,2835 5272,3046 c -548,133 -1056,383 -1502,738 -160,128 -469,436 -592,591 -692,872 -976,1961 -792,3045 76,447 252,919 479,1285 220,354 296,462 449,634 113,127 167,175 286,253 47,31 150,105 230,163 299,221 440,306 835,503 430,215 514,239 990,291 360,40 638,49 921,31 z"
       id="path2"
       style="fill:#ffffff;fill-opacity:1" />
  </g>
</svg>
