<?xml version="1.0" encoding="UTF-8" standalone="no"?>
<svg
   width="48"
   height="48"
   fill="currentColor"
   class="bi bi-thermometer-half"
   viewBox="0 0 20 20"
   version="1.1"
   id="svg300"
   sodipodi:docname="06_ntc.svg"
   inkscape:version="1.1 (c68e22c387, 2021-05-23)"
   xmlns:inkscape="http://www.inkscape.org/namespaces/inkscape"
   xmlns:sodipodi="http://sodipodi.sourceforge.net/DTD/sodipodi-0.dtd"
   xmlns="http://www.w3.org/2000/svg"
   xmlns:svg="http://www.w3.org/2000/svg">
  <sodipodi:namedview
     id="namedview7"
     pagecolor="#ffffff"
     bordercolor="#666666"
     borderopacity="1.0"
     inkscape:pageshadow="2"
     inkscape:pageopacity="0.0"
     inkscape:pagecheckerboard="true"
     showgrid="false"
     inkscape:zoom="16.916667"
     inkscape:cx="23.970443"
     inkscape:cy="28.226601"
     inkscape:window-width="1920"
     inkscape:window-height="1001"
     inkscape:window-x="-9"
     inkscape:window-y="-9"
     inkscape:window-maximized="1"
     inkscape:current-layer="svg300" />
  <defs
     id="defs304" />
  <g
     id="g308"
     transform="translate(0.3057302,0.66267418)">
    <path
       d="m 11.19427,13.837581 a 1.5,1.5 0 1 1 -2.0000004,-1.415 V 7.8375813 a 0.5000002,0.5000002 0 0 1 1.0000004,0 v 4.5849997 a 1.5,1.5 0 0 1 1,1.415 z"
       stroke="#ffffff"
       fill="#ffffff"
       id="path296" />
    <path
       d="m 7.1942696,3.8375813 a 2.5000002,2.5000002 0 0 1 5.0000004,0 v 7.5499997 a 3.5,3.5 0 1 1 -5.0000004,0 z m 2.5,-1.5 a 1.5,1.5 0 0 0 -1.5,1.5 v 7.9869997 l -0.167,0.15 a 2.5,2.5 0 1 0 3.3330004,0 l -0.166,-0.15 V 3.8375813 a 1.5,1.5 0 0 0 -1.5000004,-1.5 z"
       fill="#ffffff"
       id="path298" />
  </g>
</svg>
