<?xml version="1.0" encoding="UTF-8" standalone="no"?>
<svg
   width="48"
   height="48"
   fill="currentColor"
   class="bi bi-palette"
   viewBox="0 0 19.2 19.2"
   version="1.1"
   id="svg330"
   sodipodi:docname="09_colorsensor.svg"
   inkscape:version="1.1 (c68e22c387, 2021-05-23)"
   xmlns:inkscape="http://www.inkscape.org/namespaces/inkscape"
   xmlns:sodipodi="http://sodipodi.sourceforge.net/DTD/sodipodi-0.dtd"
   xmlns="http://www.w3.org/2000/svg"
   xmlns:svg="http://www.w3.org/2000/svg">
  <sodipodi:namedview
     id="namedview6"
     pagecolor="#ffffff"
     bordercolor="#666666"
     borderopacity="1.0"
     inkscape:pageshadow="2"
     inkscape:pageopacity="0.0"
     inkscape:pagecheckerboard="true"
     showgrid="false"
     inkscape:zoom="16.916667"
     inkscape:cx="23.970443"
     inkscape:cy="24.029557"
     inkscape:window-width="1920"
     inkscape:window-height="1001"
     inkscape:window-x="-9"
     inkscape:window-y="-9"
     inkscape:window-maximized="1"
     inkscape:current-layer="svg330" />
  <defs
     id="defs334" />
  <g
     id="g825"
     transform="translate(0.0867,-0.165517)">
    <path
       d="m 9.5133005,6.7655172 a 1.5,1.5 0 1 0 0,-3 1.5,1.5 0 0 0 0,3 z m 3.9999995,3 a 1.5,1.5 0 1 0 0,-3 1.5,1.5 0 0 0 0,3 z m -6.4999995,-1 a 1.5,1.5 0 1 1 -3,0 1.5,1.5 0 0 1 3,0 z m 0.5,5.9999998 a 1.5,1.5 0 1 0 0,-3 1.5,1.5 0 0 0 0,3 z"
       fill="#ffffff"
       id="path326" />
    <path
       d="m 17.5133,9.7655172 c 0,3.1499998 -1.866,2.5849998 -3.567,2.0699998 -1.013,-0.307 -1.968,-0.597 -2.433,-0.07 -0.603,0.683 -0.475,1.819 -0.351,2.92 0.177,1.575 0.347,3.08 -1.6489995,3.08 A 8,8 0 1 1 17.5133,9.7655172 Z M 9.5133005,16.765517 c 0.6109995,0 0.6539995,-0.171 0.6549995,-0.176 0.078,-0.146 0.124,-0.464 0.07,-1.119 -0.014,-0.168 -0.037,-0.37 -0.061,-0.591 -0.052,-0.464 -0.112,-1.005 -0.118,-1.462 -0.01,-0.707 0.083,-1.61 0.704,-2.314 0.369,-0.417 0.845,-0.578 1.272,-0.618 0.404,-0.038 0.812,0.026 1.16,0.104 0.343,0.077 0.702,0.186 1.025,0.284 l 0.028,0.008 c 0.346,0.105 0.658,0.199 0.953,0.266 0.653,0.148 0.904,0.083 0.991,0.024 0.038,-0.026 0.321,-0.245 0.321,-1.4059998 A 7,7 0 1 0 9.5133005,16.765517 Z"
       fill="#ffffff"
       id="path328" />
  </g>
</svg>
