<?xml version="1.0" encoding="UTF-8" standalone="no"?>
<svg
   width="48"
   height="48"
   fill="currentColor"
   class="bi bi-binoculars"
   viewBox="0 0 19.2 19.2"
   version="1.1"
   id="svg138"
   sodipodi:docname="14_servo.svg"
   inkscape:version="1.1 (c68e22c387, 2021-05-23)"
   xmlns:inkscape="http://www.inkscape.org/namespaces/inkscape"
   xmlns:sodipodi="http://sodipodi.sourceforge.net/DTD/sodipodi-0.dtd"
   xmlns="http://www.w3.org/2000/svg"
   xmlns:svg="http://www.w3.org/2000/svg">
  <sodipodi:namedview
     id="namedview6"
     pagecolor="#ffffff"
     bordercolor="#666666"
     borderopacity="1.0"
     inkscape:pageshadow="2"
     inkscape:pageopacity="0.0"
     inkscape:pagecheckerboard="true"
     showgrid="false"
     inkscape:zoom="8.4583333"
     inkscape:cx="32.453202"
     inkscape:cy="40.492611"
     inkscape:window-width="1920"
     inkscape:window-height="1001"
     inkscape:window-x="-9"
     inkscape:window-y="-9"
     inkscape:window-maximized="1"
     inkscape:current-layer="text10601" />
  <defs
     id="defs142" />
  <g
     aria-label="S"
     id="text10601"
     style="font-size:19.2px;line-height:1.25;fill:#000000;stroke-width:0.4">
    <path
       d="m 15.567188,12.192188 q 0,2.0625 -1.753125,3.35625 -1.74375,1.284375 -4.7437503,1.284375 -1.7343751,0 -3.0281251,-0.3 -1.2843751,-0.309375 -2.4093751,-0.778125 v -3.346875 h 0.39375 q 1.115625,0.890625 2.4937501,1.36875 1.3875,0.478125 2.6625001,0.478125 0.328125,0 0.8625003,-0.05625 0.534375,-0.05625 0.871875,-0.1875 0.4125,-0.16875 0.675,-0.421875 0.271875,-0.253125 0.271875,-0.75 0,-0.459375 -0.39375,-0.7875 -0.384375,-0.3375 -1.134375,-0.515625 -0.7875003,-0.1875 -1.6687503,-0.346875 -0.8718751,-0.16875 -1.6406251,-0.421875 -1.7625001,-0.571875 -2.5406251,-1.5468759 -0.76875,-0.984375 -0.76875,-2.4375001 0,-1.95 1.74375,-3.178125 1.7531251,-1.2375 4.5000002,-1.2375 1.3781253,0 2.7187503,0.271875 1.35,0.2625 2.334375,0.665625 v 3.2156251 h -0.384376 q -0.84375,-0.675 -2.071875,-1.125 -1.21875,-0.459375 -2.49375,-0.459375 -0.4499993,0 -0.8999993,0.065625 -0.440625,0.05625 -0.853125,0.225 -0.3656251,0.140625 -0.6281251,0.43125 -0.2625,0.28125 -0.2625,0.646875 0,0.5531249 0.421875,0.8531251 0.4218751,0.290625 1.5937501,0.5343749 0.7687493,0.159375 1.4718743,0.309375 0.7125,0.15 1.528125,0.4125 1.603125,0.525 2.3625,1.4343751 0.76875,0.9000008 0.768751,2.3437508 z"
       style="font-weight:bold;-inkscape-font-specification:'sans-serif Bold';fill:#ffffff"
       id="path823" />
  </g>
</svg>
